<svg width="85" height="23" viewBox="0 0 85 23" fill="none" xmlns="http://www.w3.org/2000/svg">
<path d="M14.3247 14.6312L14.8513 14.3814C17.3441 13.1502 18.7133 10.8841 18.7133 8.01134C18.7133 3.08661 15.2024 0.0175781 9.56733 0.0175781H0V22.9997H4.8451V4.35348H9.23379C11.709 4.35348 13.1134 5.63819 13.2012 7.97565C13.2363 8.67154 13.0958 9.36743 12.8325 9.99194C12.5867 10.5629 12.2005 11.0982 11.709 11.5265C11.2526 11.9369 10.7084 12.2759 10.1115 12.49C9.53222 12.722 8.88268 12.829 8.2156 12.829H7.93473L14.0087 22.9997H19.0644L14.3247 14.6312Z" fill="#222222"/>
<path d="M26.6657 13.4357H37.7779V9.40311H26.6657V3.7825H38.7258V0.0175781H21.6978V22.9997H38.7258V19.2347H26.6657V13.4357Z" fill="#222222"/>
<path d="M46.6958 0.0351562H41.2714L49.6099 22.9994H54.6832L62.8988 0.0351562H57.4393L52.0851 15.6301L46.6958 0.0351562Z" fill="#222222"/>
<path d="M79.9442 0.0178443V13.9712C79.9442 16.505 77.9605 18.6105 75.4327 18.7532C72.7643 18.9138 70.5524 16.7013 70.5524 13.9534C70.5524 13.8285 70.5524 2.7657 70.5524 0.0178443H65.4791V13.9177C65.4791 15.8805 65.8829 17.5756 66.6728 18.9317C67.4101 20.2164 68.5512 21.2513 69.938 21.9115C71.4302 22.6252 73.1681 22.9821 75.1518 22.9821C75.6082 22.9821 76.0646 22.9642 76.521 22.9286C78.8383 22.7323 81.9455 21.9115 83.6834 19.1279C84.5611 17.7183 85 15.9697 85 13.8999C85 13.775 85 2.74786 85 0L79.9442 0.0178443Z" fill="#222222"/>
</svg>
